<svg xmlns="http://www.w3.org/2000/svg" xmlns:xlink="http://www.w3.org/1999/xlink" width="1920" height="236" viewBox="0 0 1920 236"><defs><clipPath id="b"><rect width="1920" height="236"/></clipPath></defs><g id="a" clip-path="url(#b)"><g transform="translate(0 -108)"><path d="M3361.557,671.923s-288.317-215.849-815.119-135.4-774.322,225.66-1497.169,154.717S-76.9,338.338-76.9,338.338v731.925H3361.557Z" transform="translate(-559.619 -385.926)" fill="#009dc4" opacity="0.56"/><path d="M3361.557,671.923s-288.317-215.849-815.119-135.4-774.322,225.66-1497.169,154.717S-76.9,338.338-76.9,338.338v731.925H3361.557Z" transform="translate(-779.418 -405.926)" fill="#009dc4" opacity="0.56"/><path d="M3461.318,720.114S3164.636,473.083,2622.55,565.158s-796.788,258.26-1540.607,177.068S-76.9,338.338-76.9,338.338V1176H3461.318Z" transform="translate(-805.043 -427)" fill="#283236"/></g></g></svg>